G75*
%MOIN*%
%OFA0B0*%
%FSLAX25Y25*%
%IPPOS*%
%LPD*%
%AMOC8*
5,1,8,0,0,1.08239X$1,22.5*
%
%ADD10C,0.00000*%
%ADD11R,0.20400X0.07400*%
%ADD12C,0.01655*%
%ADD13C,0.06400*%
D10*
X0001600Y0001600D02*
X0161049Y0001600D01*
X0161049Y0107899D01*
X0001600Y0107899D01*
X0001600Y0001600D01*
D11*
X0086800Y0079500D03*
X0124800Y0079500D03*
D12*
X0120769Y0063978D02*
X0116905Y0063978D01*
X0116905Y0069022D01*
X0120769Y0069022D01*
X0120769Y0063978D01*
X0120769Y0065632D02*
X0116905Y0065632D01*
X0116905Y0067286D02*
X0120769Y0067286D01*
X0120769Y0068940D02*
X0116905Y0068940D01*
X0112895Y0063978D02*
X0109031Y0063978D01*
X0109031Y0069022D01*
X0112895Y0069022D01*
X0112895Y0063978D01*
X0112895Y0065632D02*
X0109031Y0065632D01*
X0109031Y0067286D02*
X0112895Y0067286D01*
X0112895Y0068940D02*
X0109031Y0068940D01*
X0102469Y0069122D02*
X0098605Y0069122D01*
X0102469Y0069122D02*
X0102469Y0064078D01*
X0098605Y0064078D01*
X0098605Y0069122D01*
X0098605Y0065732D02*
X0102469Y0065732D01*
X0102469Y0067386D02*
X0098605Y0067386D01*
X0098605Y0069040D02*
X0102469Y0069040D01*
X0094595Y0069122D02*
X0090731Y0069122D01*
X0094595Y0069122D02*
X0094595Y0064078D01*
X0090731Y0064078D01*
X0090731Y0069122D01*
X0090731Y0065732D02*
X0094595Y0065732D01*
X0094595Y0067386D02*
X0090731Y0067386D01*
X0090731Y0069040D02*
X0094595Y0069040D01*
X0064174Y0074522D02*
X0064174Y0078386D01*
X0068826Y0078386D01*
X0068826Y0074522D01*
X0064174Y0074522D01*
X0064174Y0076176D02*
X0068826Y0076176D01*
X0068826Y0077830D02*
X0064174Y0077830D01*
X0054474Y0078486D02*
X0054474Y0074622D01*
X0054474Y0078486D02*
X0059126Y0078486D01*
X0059126Y0074622D01*
X0054474Y0074622D01*
X0054474Y0076276D02*
X0059126Y0076276D01*
X0059126Y0077930D02*
X0054474Y0077930D01*
X0054474Y0081314D02*
X0054474Y0085178D01*
X0059126Y0085178D01*
X0059126Y0081314D01*
X0054474Y0081314D01*
X0054474Y0082968D02*
X0059126Y0082968D01*
X0059126Y0084622D02*
X0054474Y0084622D01*
X0044174Y0085178D02*
X0044174Y0081314D01*
X0044174Y0085178D02*
X0048826Y0085178D01*
X0048826Y0081314D01*
X0044174Y0081314D01*
X0044174Y0082968D02*
X0048826Y0082968D01*
X0048826Y0084622D02*
X0044174Y0084622D01*
X0033874Y0085078D02*
X0033874Y0081214D01*
X0033874Y0085078D02*
X0038526Y0085078D01*
X0038526Y0081214D01*
X0033874Y0081214D01*
X0033874Y0082868D02*
X0038526Y0082868D01*
X0038526Y0084522D02*
X0033874Y0084522D01*
X0033874Y0078386D02*
X0033874Y0074522D01*
X0033874Y0078386D02*
X0038526Y0078386D01*
X0038526Y0074522D01*
X0033874Y0074522D01*
X0033874Y0076176D02*
X0038526Y0076176D01*
X0038526Y0077830D02*
X0033874Y0077830D01*
X0044174Y0078486D02*
X0044174Y0074622D01*
X0044174Y0078486D02*
X0048826Y0078486D01*
X0048826Y0074622D01*
X0044174Y0074622D01*
X0044174Y0076276D02*
X0048826Y0076276D01*
X0048826Y0077930D02*
X0044174Y0077930D01*
X0064174Y0081214D02*
X0064174Y0085078D01*
X0068826Y0085078D01*
X0068826Y0081214D01*
X0064174Y0081214D01*
X0064174Y0082868D02*
X0068826Y0082868D01*
X0068826Y0084522D02*
X0064174Y0084522D01*
X0057469Y0049978D02*
X0053605Y0049978D01*
X0053605Y0055022D01*
X0057469Y0055022D01*
X0057469Y0049978D01*
X0057469Y0051632D02*
X0053605Y0051632D01*
X0053605Y0053286D02*
X0057469Y0053286D01*
X0057469Y0054940D02*
X0053605Y0054940D01*
X0049595Y0049978D02*
X0045731Y0049978D01*
X0045731Y0055022D01*
X0049595Y0055022D01*
X0049595Y0049978D01*
X0049595Y0051632D02*
X0045731Y0051632D01*
X0045731Y0053286D02*
X0049595Y0053286D01*
X0049595Y0054940D02*
X0045731Y0054940D01*
X0045631Y0047122D02*
X0049495Y0047122D01*
X0049495Y0042078D01*
X0045631Y0042078D01*
X0045631Y0047122D01*
X0045631Y0043732D02*
X0049495Y0043732D01*
X0049495Y0045386D02*
X0045631Y0045386D01*
X0045631Y0047040D02*
X0049495Y0047040D01*
X0053505Y0047122D02*
X0057369Y0047122D01*
X0057369Y0042078D01*
X0053505Y0042078D01*
X0053505Y0047122D01*
X0053505Y0043732D02*
X0057369Y0043732D01*
X0057369Y0045386D02*
X0053505Y0045386D01*
X0053505Y0047040D02*
X0057369Y0047040D01*
X0044074Y0039278D02*
X0044074Y0035414D01*
X0044074Y0039278D02*
X0048726Y0039278D01*
X0048726Y0035414D01*
X0044074Y0035414D01*
X0044074Y0037068D02*
X0048726Y0037068D01*
X0048726Y0038722D02*
X0044074Y0038722D01*
X0044074Y0032586D02*
X0044074Y0028722D01*
X0044074Y0032586D02*
X0048726Y0032586D01*
X0048726Y0028722D01*
X0044074Y0028722D01*
X0044074Y0030376D02*
X0048726Y0030376D01*
X0048726Y0032030D02*
X0044074Y0032030D01*
X0053874Y0031414D02*
X0053874Y0035278D01*
X0058526Y0035278D01*
X0058526Y0031414D01*
X0053874Y0031414D01*
X0053874Y0033068D02*
X0058526Y0033068D01*
X0058526Y0034722D02*
X0053874Y0034722D01*
X0053874Y0028586D02*
X0053874Y0024722D01*
X0053874Y0028586D02*
X0058526Y0028586D01*
X0058526Y0024722D01*
X0053874Y0024722D01*
X0053874Y0026376D02*
X0058526Y0026376D01*
X0058526Y0028030D02*
X0053874Y0028030D01*
X0053014Y0022426D02*
X0056878Y0022426D01*
X0056878Y0017774D01*
X0053014Y0017774D01*
X0053014Y0022426D01*
X0053014Y0019428D02*
X0056878Y0019428D01*
X0056878Y0021082D02*
X0053014Y0021082D01*
X0050186Y0022426D02*
X0046322Y0022426D01*
X0050186Y0022426D02*
X0050186Y0017774D01*
X0046322Y0017774D01*
X0046322Y0022426D01*
X0046322Y0019428D02*
X0050186Y0019428D01*
X0050186Y0021082D02*
X0046322Y0021082D01*
X0063222Y0025474D02*
X0067086Y0025474D01*
X0063222Y0025474D02*
X0063222Y0030126D01*
X0067086Y0030126D01*
X0067086Y0025474D01*
X0067086Y0027128D02*
X0063222Y0027128D01*
X0063222Y0028782D02*
X0067086Y0028782D01*
X0069914Y0025474D02*
X0073778Y0025474D01*
X0069914Y0025474D02*
X0069914Y0030126D01*
X0073778Y0030126D01*
X0073778Y0025474D01*
X0073778Y0027128D02*
X0069914Y0027128D01*
X0069914Y0028782D02*
X0073778Y0028782D01*
X0086426Y0029378D02*
X0086426Y0025514D01*
X0081774Y0025514D01*
X0081774Y0029378D01*
X0086426Y0029378D01*
X0086426Y0027168D02*
X0081774Y0027168D01*
X0081774Y0028822D02*
X0086426Y0028822D01*
X0086426Y0022686D02*
X0086426Y0018822D01*
X0081774Y0018822D01*
X0081774Y0022686D01*
X0086426Y0022686D01*
X0086426Y0020476D02*
X0081774Y0020476D01*
X0081774Y0022130D02*
X0086426Y0022130D01*
X0091822Y0022126D02*
X0095686Y0022126D01*
X0095686Y0017474D01*
X0091822Y0017474D01*
X0091822Y0022126D01*
X0091822Y0019128D02*
X0095686Y0019128D01*
X0095686Y0020782D02*
X0091822Y0020782D01*
X0098514Y0022126D02*
X0102378Y0022126D01*
X0102378Y0017474D01*
X0098514Y0017474D01*
X0098514Y0022126D01*
X0098514Y0019128D02*
X0102378Y0019128D01*
X0102378Y0020782D02*
X0098514Y0020782D01*
X0085269Y0040122D02*
X0081405Y0040122D01*
X0085269Y0040122D02*
X0085269Y0035078D01*
X0081405Y0035078D01*
X0081405Y0040122D01*
X0081405Y0036732D02*
X0085269Y0036732D01*
X0085269Y0038386D02*
X0081405Y0038386D01*
X0081405Y0040040D02*
X0085269Y0040040D01*
X0083869Y0044878D02*
X0080005Y0044878D01*
X0080005Y0049922D01*
X0083869Y0049922D01*
X0083869Y0044878D01*
X0083869Y0046532D02*
X0080005Y0046532D01*
X0080005Y0048186D02*
X0083869Y0048186D01*
X0083869Y0049840D02*
X0080005Y0049840D01*
X0075995Y0044878D02*
X0072131Y0044878D01*
X0072131Y0049922D01*
X0075995Y0049922D01*
X0075995Y0044878D01*
X0075995Y0046532D02*
X0072131Y0046532D01*
X0072131Y0048186D02*
X0075995Y0048186D01*
X0075995Y0049840D02*
X0072131Y0049840D01*
X0073531Y0040122D02*
X0077395Y0040122D01*
X0077395Y0035078D01*
X0073531Y0035078D01*
X0073531Y0040122D01*
X0073531Y0036732D02*
X0077395Y0036732D01*
X0077395Y0038386D02*
X0073531Y0038386D01*
X0073531Y0040040D02*
X0077395Y0040040D01*
X0124121Y0039402D02*
X0127985Y0039402D01*
X0127985Y0034358D01*
X0124121Y0034358D01*
X0124121Y0039402D01*
X0124121Y0036012D02*
X0127985Y0036012D01*
X0127985Y0037666D02*
X0124121Y0037666D01*
X0124121Y0039320D02*
X0127985Y0039320D01*
X0131995Y0039402D02*
X0135859Y0039402D01*
X0135859Y0034358D01*
X0131995Y0034358D01*
X0131995Y0039402D01*
X0131995Y0036012D02*
X0135859Y0036012D01*
X0135859Y0037666D02*
X0131995Y0037666D01*
X0131995Y0039320D02*
X0135859Y0039320D01*
X0139671Y0039402D02*
X0143535Y0039402D01*
X0143535Y0034358D01*
X0139671Y0034358D01*
X0139671Y0039402D01*
X0139671Y0036012D02*
X0143535Y0036012D01*
X0143535Y0037666D02*
X0139671Y0037666D01*
X0139671Y0039320D02*
X0143535Y0039320D01*
X0147545Y0039402D02*
X0151409Y0039402D01*
X0151409Y0034358D01*
X0147545Y0034358D01*
X0147545Y0039402D01*
X0147545Y0036012D02*
X0151409Y0036012D01*
X0151409Y0037666D02*
X0147545Y0037666D01*
X0147545Y0039320D02*
X0151409Y0039320D01*
X0151458Y0026354D02*
X0147594Y0026354D01*
X0147594Y0031006D01*
X0151458Y0031006D01*
X0151458Y0026354D01*
X0151458Y0028008D02*
X0147594Y0028008D01*
X0147594Y0029662D02*
X0151458Y0029662D01*
X0144766Y0026354D02*
X0140902Y0026354D01*
X0140902Y0031006D01*
X0144766Y0031006D01*
X0144766Y0026354D01*
X0144766Y0028008D02*
X0140902Y0028008D01*
X0140902Y0029662D02*
X0144766Y0029662D01*
X0134668Y0026264D02*
X0130804Y0026264D01*
X0130804Y0030916D01*
X0134668Y0030916D01*
X0134668Y0026264D01*
X0134668Y0027918D02*
X0130804Y0027918D01*
X0130804Y0029572D02*
X0134668Y0029572D01*
X0127976Y0026264D02*
X0124112Y0026264D01*
X0124112Y0030916D01*
X0127976Y0030916D01*
X0127976Y0026264D01*
X0127976Y0027918D02*
X0124112Y0027918D01*
X0124112Y0029572D02*
X0127976Y0029572D01*
X0003874Y0074522D02*
X0003874Y0078386D01*
X0008526Y0078386D01*
X0008526Y0074522D01*
X0003874Y0074522D01*
X0003874Y0076176D02*
X0008526Y0076176D01*
X0008526Y0077830D02*
X0003874Y0077830D01*
X0003874Y0081214D02*
X0003874Y0085078D01*
X0008526Y0085078D01*
X0008526Y0081214D01*
X0003874Y0081214D01*
X0003874Y0082868D02*
X0008526Y0082868D01*
X0008526Y0084522D02*
X0003874Y0084522D01*
D13*
X0006600Y0096100D02*
X0006600Y0102100D01*
X0016600Y0102100D02*
X0016600Y0096100D01*
X0026600Y0096100D02*
X0026600Y0102100D01*
X0036600Y0102100D02*
X0036600Y0096100D01*
X0046600Y0096100D02*
X0046600Y0102100D01*
X0056600Y0102100D02*
X0056600Y0096100D01*
X0066600Y0096100D02*
X0066600Y0102100D01*
X0076600Y0102100D02*
X0076600Y0096100D01*
X0086600Y0096100D02*
X0086600Y0102100D01*
X0096600Y0102100D02*
X0096600Y0096100D01*
X0106600Y0096100D02*
X0106600Y0102100D01*
X0116600Y0102100D02*
X0116600Y0096100D01*
X0126600Y0096100D02*
X0126600Y0102100D01*
X0136600Y0102100D02*
X0136600Y0096100D01*
X0136600Y0012100D02*
X0136600Y0006100D01*
X0126600Y0006100D02*
X0126600Y0012100D01*
X0116600Y0012100D02*
X0116600Y0006100D01*
X0106600Y0006100D02*
X0106600Y0012100D01*
X0096600Y0012100D02*
X0096600Y0006100D01*
X0086600Y0006100D02*
X0086600Y0012100D01*
X0076600Y0012100D02*
X0076600Y0006100D01*
X0066600Y0006100D02*
X0066600Y0012100D01*
X0056600Y0012100D02*
X0056600Y0006100D01*
X0046600Y0006100D02*
X0046600Y0012100D01*
X0036600Y0012100D02*
X0036600Y0006100D01*
X0026600Y0006100D02*
X0026600Y0012100D01*
X0016600Y0012100D02*
X0016600Y0006100D01*
X0006600Y0006100D02*
X0006600Y0012100D01*
X0146500Y0012100D02*
X0146500Y0006100D01*
X0156500Y0006100D02*
X0156500Y0012100D01*
M02*
