G75*
%MOIN*%
%OFA0B0*%
%FSLAX25Y25*%
%IPPOS*%
%LPD*%
%AMOC8*
5,1,8,0,0,1.08239X$1,22.5*
%
%ADD10C,0.00000*%
%ADD11R,0.20000X0.07000*%
%ADD12C,0.01535*%
D10*
X0001600Y0001600D02*
X0161049Y0001600D01*
X0161049Y0107899D01*
X0001600Y0107899D01*
X0001600Y0001600D01*
D11*
X0086800Y0079500D03*
X0124800Y0079500D03*
D12*
X0120629Y0064118D02*
X0117045Y0064118D01*
X0117045Y0068882D01*
X0120629Y0068882D01*
X0120629Y0064118D01*
X0120629Y0065652D02*
X0117045Y0065652D01*
X0117045Y0067186D02*
X0120629Y0067186D01*
X0120629Y0068720D02*
X0117045Y0068720D01*
X0112755Y0064118D02*
X0109171Y0064118D01*
X0109171Y0068882D01*
X0112755Y0068882D01*
X0112755Y0064118D01*
X0112755Y0065652D02*
X0109171Y0065652D01*
X0109171Y0067186D02*
X0112755Y0067186D01*
X0112755Y0068720D02*
X0109171Y0068720D01*
X0102329Y0068982D02*
X0098745Y0068982D01*
X0102329Y0068982D02*
X0102329Y0064218D01*
X0098745Y0064218D01*
X0098745Y0068982D01*
X0098745Y0065752D02*
X0102329Y0065752D01*
X0102329Y0067286D02*
X0098745Y0067286D01*
X0098745Y0068820D02*
X0102329Y0068820D01*
X0094455Y0068982D02*
X0090871Y0068982D01*
X0094455Y0068982D02*
X0094455Y0064218D01*
X0090871Y0064218D01*
X0090871Y0068982D01*
X0090871Y0065752D02*
X0094455Y0065752D01*
X0094455Y0067286D02*
X0090871Y0067286D01*
X0090871Y0068820D02*
X0094455Y0068820D01*
X0064314Y0074662D02*
X0064314Y0078246D01*
X0068686Y0078246D01*
X0068686Y0074662D01*
X0064314Y0074662D01*
X0064314Y0076196D02*
X0068686Y0076196D01*
X0068686Y0077730D02*
X0064314Y0077730D01*
X0054614Y0078346D02*
X0054614Y0074762D01*
X0054614Y0078346D02*
X0058986Y0078346D01*
X0058986Y0074762D01*
X0054614Y0074762D01*
X0054614Y0076296D02*
X0058986Y0076296D01*
X0058986Y0077830D02*
X0054614Y0077830D01*
X0044314Y0078346D02*
X0044314Y0074762D01*
X0044314Y0078346D02*
X0048686Y0078346D01*
X0048686Y0074762D01*
X0044314Y0074762D01*
X0044314Y0076296D02*
X0048686Y0076296D01*
X0048686Y0077830D02*
X0044314Y0077830D01*
X0044314Y0081454D02*
X0044314Y0085038D01*
X0048686Y0085038D01*
X0048686Y0081454D01*
X0044314Y0081454D01*
X0044314Y0082988D02*
X0048686Y0082988D01*
X0048686Y0084522D02*
X0044314Y0084522D01*
X0034014Y0084938D02*
X0034014Y0081354D01*
X0034014Y0084938D02*
X0038386Y0084938D01*
X0038386Y0081354D01*
X0034014Y0081354D01*
X0034014Y0082888D02*
X0038386Y0082888D01*
X0038386Y0084422D02*
X0034014Y0084422D01*
X0034014Y0078246D02*
X0034014Y0074662D01*
X0034014Y0078246D02*
X0038386Y0078246D01*
X0038386Y0074662D01*
X0034014Y0074662D01*
X0034014Y0076196D02*
X0038386Y0076196D01*
X0038386Y0077730D02*
X0034014Y0077730D01*
X0054614Y0081454D02*
X0054614Y0085038D01*
X0058986Y0085038D01*
X0058986Y0081454D01*
X0054614Y0081454D01*
X0054614Y0082988D02*
X0058986Y0082988D01*
X0058986Y0084522D02*
X0054614Y0084522D01*
X0064314Y0084938D02*
X0064314Y0081354D01*
X0064314Y0084938D02*
X0068686Y0084938D01*
X0068686Y0081354D01*
X0064314Y0081354D01*
X0064314Y0082888D02*
X0068686Y0082888D01*
X0068686Y0084422D02*
X0064314Y0084422D01*
X0057329Y0050118D02*
X0053745Y0050118D01*
X0053745Y0054882D01*
X0057329Y0054882D01*
X0057329Y0050118D01*
X0057329Y0051652D02*
X0053745Y0051652D01*
X0053745Y0053186D02*
X0057329Y0053186D01*
X0057329Y0054720D02*
X0053745Y0054720D01*
X0049455Y0050118D02*
X0045871Y0050118D01*
X0045871Y0054882D01*
X0049455Y0054882D01*
X0049455Y0050118D01*
X0049455Y0051652D02*
X0045871Y0051652D01*
X0045871Y0053186D02*
X0049455Y0053186D01*
X0049455Y0054720D02*
X0045871Y0054720D01*
X0045771Y0046982D02*
X0049355Y0046982D01*
X0049355Y0042218D01*
X0045771Y0042218D01*
X0045771Y0046982D01*
X0045771Y0043752D02*
X0049355Y0043752D01*
X0049355Y0045286D02*
X0045771Y0045286D01*
X0045771Y0046820D02*
X0049355Y0046820D01*
X0053645Y0046982D02*
X0057229Y0046982D01*
X0057229Y0042218D01*
X0053645Y0042218D01*
X0053645Y0046982D01*
X0053645Y0043752D02*
X0057229Y0043752D01*
X0057229Y0045286D02*
X0053645Y0045286D01*
X0053645Y0046820D02*
X0057229Y0046820D01*
X0044214Y0039138D02*
X0044214Y0035554D01*
X0044214Y0039138D02*
X0048586Y0039138D01*
X0048586Y0035554D01*
X0044214Y0035554D01*
X0044214Y0037088D02*
X0048586Y0037088D01*
X0048586Y0038622D02*
X0044214Y0038622D01*
X0044214Y0032446D02*
X0044214Y0028862D01*
X0044214Y0032446D02*
X0048586Y0032446D01*
X0048586Y0028862D01*
X0044214Y0028862D01*
X0044214Y0030396D02*
X0048586Y0030396D01*
X0048586Y0031930D02*
X0044214Y0031930D01*
X0054014Y0031554D02*
X0054014Y0035138D01*
X0058386Y0035138D01*
X0058386Y0031554D01*
X0054014Y0031554D01*
X0054014Y0033088D02*
X0058386Y0033088D01*
X0058386Y0034622D02*
X0054014Y0034622D01*
X0063362Y0025614D02*
X0066946Y0025614D01*
X0063362Y0025614D02*
X0063362Y0029986D01*
X0066946Y0029986D01*
X0066946Y0025614D01*
X0066946Y0027148D02*
X0063362Y0027148D01*
X0063362Y0028682D02*
X0066946Y0028682D01*
X0070054Y0025614D02*
X0073638Y0025614D01*
X0070054Y0025614D02*
X0070054Y0029986D01*
X0073638Y0029986D01*
X0073638Y0025614D01*
X0073638Y0027148D02*
X0070054Y0027148D01*
X0070054Y0028682D02*
X0073638Y0028682D01*
X0086286Y0029238D02*
X0086286Y0025654D01*
X0081914Y0025654D01*
X0081914Y0029238D01*
X0086286Y0029238D01*
X0086286Y0027188D02*
X0081914Y0027188D01*
X0081914Y0028722D02*
X0086286Y0028722D01*
X0086286Y0022546D02*
X0086286Y0018962D01*
X0081914Y0018962D01*
X0081914Y0022546D01*
X0086286Y0022546D01*
X0086286Y0020496D02*
X0081914Y0020496D01*
X0081914Y0022030D02*
X0086286Y0022030D01*
X0091962Y0021986D02*
X0095546Y0021986D01*
X0095546Y0017614D01*
X0091962Y0017614D01*
X0091962Y0021986D01*
X0091962Y0019148D02*
X0095546Y0019148D01*
X0095546Y0020682D02*
X0091962Y0020682D01*
X0098654Y0021986D02*
X0102238Y0021986D01*
X0102238Y0017614D01*
X0098654Y0017614D01*
X0098654Y0021986D01*
X0098654Y0019148D02*
X0102238Y0019148D01*
X0102238Y0020682D02*
X0098654Y0020682D01*
X0085129Y0039982D02*
X0081545Y0039982D01*
X0085129Y0039982D02*
X0085129Y0035218D01*
X0081545Y0035218D01*
X0081545Y0039982D01*
X0081545Y0036752D02*
X0085129Y0036752D01*
X0085129Y0038286D02*
X0081545Y0038286D01*
X0081545Y0039820D02*
X0085129Y0039820D01*
X0083729Y0045018D02*
X0080145Y0045018D01*
X0080145Y0049782D01*
X0083729Y0049782D01*
X0083729Y0045018D01*
X0083729Y0046552D02*
X0080145Y0046552D01*
X0080145Y0048086D02*
X0083729Y0048086D01*
X0083729Y0049620D02*
X0080145Y0049620D01*
X0075855Y0045018D02*
X0072271Y0045018D01*
X0072271Y0049782D01*
X0075855Y0049782D01*
X0075855Y0045018D01*
X0075855Y0046552D02*
X0072271Y0046552D01*
X0072271Y0048086D02*
X0075855Y0048086D01*
X0075855Y0049620D02*
X0072271Y0049620D01*
X0073671Y0039982D02*
X0077255Y0039982D01*
X0077255Y0035218D01*
X0073671Y0035218D01*
X0073671Y0039982D01*
X0073671Y0036752D02*
X0077255Y0036752D01*
X0077255Y0038286D02*
X0073671Y0038286D01*
X0073671Y0039820D02*
X0077255Y0039820D01*
X0054014Y0028446D02*
X0054014Y0024862D01*
X0054014Y0028446D02*
X0058386Y0028446D01*
X0058386Y0024862D01*
X0054014Y0024862D01*
X0054014Y0026396D02*
X0058386Y0026396D01*
X0058386Y0027930D02*
X0054014Y0027930D01*
X0053154Y0022286D02*
X0056738Y0022286D01*
X0056738Y0017914D01*
X0053154Y0017914D01*
X0053154Y0022286D01*
X0053154Y0019448D02*
X0056738Y0019448D01*
X0056738Y0020982D02*
X0053154Y0020982D01*
X0050046Y0022286D02*
X0046462Y0022286D01*
X0050046Y0022286D02*
X0050046Y0017914D01*
X0046462Y0017914D01*
X0046462Y0022286D01*
X0046462Y0019448D02*
X0050046Y0019448D01*
X0050046Y0020982D02*
X0046462Y0020982D01*
X0124252Y0026404D02*
X0127836Y0026404D01*
X0124252Y0026404D02*
X0124252Y0030776D01*
X0127836Y0030776D01*
X0127836Y0026404D01*
X0127836Y0027938D02*
X0124252Y0027938D01*
X0124252Y0029472D02*
X0127836Y0029472D01*
X0130944Y0026404D02*
X0134528Y0026404D01*
X0130944Y0026404D02*
X0130944Y0030776D01*
X0134528Y0030776D01*
X0134528Y0026404D01*
X0134528Y0027938D02*
X0130944Y0027938D01*
X0130944Y0029472D02*
X0134528Y0029472D01*
X0135719Y0039262D02*
X0132135Y0039262D01*
X0135719Y0039262D02*
X0135719Y0034498D01*
X0132135Y0034498D01*
X0132135Y0039262D01*
X0132135Y0036032D02*
X0135719Y0036032D01*
X0135719Y0037566D02*
X0132135Y0037566D01*
X0132135Y0039100D02*
X0135719Y0039100D01*
X0139811Y0039262D02*
X0143395Y0039262D01*
X0143395Y0034498D01*
X0139811Y0034498D01*
X0139811Y0039262D01*
X0139811Y0036032D02*
X0143395Y0036032D01*
X0143395Y0037566D02*
X0139811Y0037566D01*
X0139811Y0039100D02*
X0143395Y0039100D01*
X0147685Y0039262D02*
X0151269Y0039262D01*
X0151269Y0034498D01*
X0147685Y0034498D01*
X0147685Y0039262D01*
X0147685Y0036032D02*
X0151269Y0036032D01*
X0151269Y0037566D02*
X0147685Y0037566D01*
X0147685Y0039100D02*
X0151269Y0039100D01*
X0151318Y0026494D02*
X0147734Y0026494D01*
X0147734Y0030866D01*
X0151318Y0030866D01*
X0151318Y0026494D01*
X0151318Y0028028D02*
X0147734Y0028028D01*
X0147734Y0029562D02*
X0151318Y0029562D01*
X0144626Y0026494D02*
X0141042Y0026494D01*
X0141042Y0030866D01*
X0144626Y0030866D01*
X0144626Y0026494D01*
X0144626Y0028028D02*
X0141042Y0028028D01*
X0141042Y0029562D02*
X0144626Y0029562D01*
X0127845Y0039262D02*
X0124261Y0039262D01*
X0127845Y0039262D02*
X0127845Y0034498D01*
X0124261Y0034498D01*
X0124261Y0039262D01*
X0124261Y0036032D02*
X0127845Y0036032D01*
X0127845Y0037566D02*
X0124261Y0037566D01*
X0124261Y0039100D02*
X0127845Y0039100D01*
X0004014Y0074662D02*
X0004014Y0078246D01*
X0008386Y0078246D01*
X0008386Y0074662D01*
X0004014Y0074662D01*
X0004014Y0076196D02*
X0008386Y0076196D01*
X0008386Y0077730D02*
X0004014Y0077730D01*
X0004014Y0081354D02*
X0004014Y0084938D01*
X0008386Y0084938D01*
X0008386Y0081354D01*
X0004014Y0081354D01*
X0004014Y0082888D02*
X0008386Y0082888D01*
X0008386Y0084422D02*
X0004014Y0084422D01*
M02*
