%
M48
M72
T01C0.01969
T02C0.02000
T03C0.04000
%
T01
X65000Y21900
X33500Y22700
T02
X68600Y40300
X40900Y40300
X130600Y52300
X131800Y66400
X121500Y16800
X113800Y46400
X96700Y35400
X101200Y32100
X118500Y39300
X113700Y30000
X105300Y36600
X130700Y57900
X139100Y63300
X149100Y63100
X85500Y72900
X102500Y88100
X112000Y89200
X113700Y35900
T03
X6600Y9100
X16600Y9100
X26600Y9100
X36600Y9100
X46600Y9100
X56600Y9100
X66600Y9100
X76600Y9100
X86600Y9100
X96600Y9100
X106600Y9100
X116600Y9100
X126600Y9100
X136600Y9100
X6600Y99100
X16600Y99100
X26600Y99100
X36600Y99100
X46600Y99100
X56600Y99100
X66600Y99100
X76600Y99100
X86600Y99100
X96600Y99100
X106600Y99100
X116600Y99100
X126600Y99100
X136600Y99100
X146500Y9100
X156500Y9100
M30
