G75*
%MOIN*%
%OFA0B0*%
%FSLAX25Y25*%
%IPPOS*%
%LPD*%
%AMOC8*
5,1,8,0,0,1.08239X$1,22.5*
%
%ADD10C,0.00000*%
%ADD11C,0.01535*%
%ADD12C,0.01200*%
%ADD13R,0.04000X0.04000*%
%ADD14C,0.01772*%
%ADD15R,0.03937X0.03937*%
D10*
X0001600Y0001600D02*
X0161049Y0001600D01*
X0161049Y0107899D01*
X0001600Y0107899D01*
X0001600Y0001600D01*
D11*
X0066786Y0024962D02*
X0066786Y0028546D01*
X0066786Y0024962D02*
X0062414Y0024962D01*
X0062414Y0028546D01*
X0066786Y0028546D01*
X0066786Y0026496D02*
X0062414Y0026496D01*
X0062414Y0028030D02*
X0066786Y0028030D01*
X0070118Y0027155D02*
X0070118Y0023571D01*
X0070118Y0027155D02*
X0074882Y0027155D01*
X0074882Y0023571D01*
X0070118Y0023571D01*
X0070118Y0025105D02*
X0074882Y0025105D01*
X0074882Y0026639D02*
X0070118Y0026639D01*
X0070118Y0031445D02*
X0070118Y0035029D01*
X0074882Y0035029D01*
X0074882Y0031445D01*
X0070118Y0031445D01*
X0070118Y0032979D02*
X0074882Y0032979D01*
X0074882Y0034513D02*
X0070118Y0034513D01*
X0066786Y0035238D02*
X0066786Y0031654D01*
X0062414Y0031654D01*
X0062414Y0035238D01*
X0066786Y0035238D01*
X0066786Y0033188D02*
X0062414Y0033188D01*
X0062414Y0034722D02*
X0066786Y0034722D01*
X0080671Y0029918D02*
X0084255Y0029918D01*
X0080671Y0029918D02*
X0080671Y0034682D01*
X0084255Y0034682D01*
X0084255Y0029918D01*
X0084255Y0031452D02*
X0080671Y0031452D01*
X0080671Y0032986D02*
X0084255Y0032986D01*
X0084255Y0034520D02*
X0080671Y0034520D01*
X0088545Y0029918D02*
X0092129Y0029918D01*
X0088545Y0029918D02*
X0088545Y0034682D01*
X0092129Y0034682D01*
X0092129Y0029918D01*
X0092129Y0031452D02*
X0088545Y0031452D01*
X0088545Y0032986D02*
X0092129Y0032986D01*
X0092129Y0034520D02*
X0088545Y0034520D01*
X0115282Y0049471D02*
X0115282Y0053055D01*
X0115282Y0049471D02*
X0110518Y0049471D01*
X0110518Y0053055D01*
X0115282Y0053055D01*
X0115282Y0051005D02*
X0110518Y0051005D01*
X0110518Y0052539D02*
X0115282Y0052539D01*
X0115282Y0057345D02*
X0115282Y0060929D01*
X0115282Y0057345D02*
X0110518Y0057345D01*
X0110518Y0060929D01*
X0115282Y0060929D01*
X0115282Y0058879D02*
X0110518Y0058879D01*
X0110518Y0060413D02*
X0115282Y0060413D01*
X0114045Y0063918D02*
X0117629Y0063918D01*
X0114045Y0063918D02*
X0114045Y0068682D01*
X0117629Y0068682D01*
X0117629Y0063918D01*
X0117629Y0065452D02*
X0114045Y0065452D01*
X0114045Y0066986D02*
X0117629Y0066986D01*
X0117629Y0068520D02*
X0114045Y0068520D01*
X0109755Y0063918D02*
X0106171Y0063918D01*
X0106171Y0068682D01*
X0109755Y0068682D01*
X0109755Y0063918D01*
X0109755Y0065452D02*
X0106171Y0065452D01*
X0106171Y0066986D02*
X0109755Y0066986D01*
X0109755Y0068520D02*
X0106171Y0068520D01*
X0105229Y0079518D02*
X0101645Y0079518D01*
X0101645Y0084282D01*
X0105229Y0084282D01*
X0105229Y0079518D01*
X0105229Y0081052D02*
X0101645Y0081052D01*
X0101645Y0082586D02*
X0105229Y0082586D01*
X0105229Y0084120D02*
X0101645Y0084120D01*
X0097355Y0079518D02*
X0093771Y0079518D01*
X0093771Y0084282D01*
X0097355Y0084282D01*
X0097355Y0079518D01*
X0097355Y0081052D02*
X0093771Y0081052D01*
X0093771Y0082586D02*
X0097355Y0082586D01*
X0097355Y0084120D02*
X0093771Y0084120D01*
X0028586Y0070038D02*
X0028586Y0066454D01*
X0024214Y0066454D01*
X0024214Y0070038D01*
X0028586Y0070038D01*
X0028586Y0067988D02*
X0024214Y0067988D01*
X0024214Y0069522D02*
X0028586Y0069522D01*
X0028586Y0063346D02*
X0028586Y0059762D01*
X0024214Y0059762D01*
X0024214Y0063346D01*
X0028586Y0063346D01*
X0028586Y0061296D02*
X0024214Y0061296D01*
X0024214Y0062830D02*
X0028586Y0062830D01*
X0018386Y0063346D02*
X0018386Y0059762D01*
X0014014Y0059762D01*
X0014014Y0063346D01*
X0018386Y0063346D01*
X0018386Y0061296D02*
X0014014Y0061296D01*
X0014014Y0062830D02*
X0018386Y0062830D01*
X0018386Y0066454D02*
X0018386Y0070038D01*
X0018386Y0066454D02*
X0014014Y0066454D01*
X0014014Y0070038D01*
X0018386Y0070038D01*
X0018386Y0067988D02*
X0014014Y0067988D01*
X0014014Y0069522D02*
X0018386Y0069522D01*
D12*
X0077500Y0057906D02*
X0079500Y0057906D01*
X0079500Y0055937D02*
X0077500Y0055937D01*
X0077500Y0053969D02*
X0079500Y0053969D01*
X0079500Y0052000D02*
X0077500Y0052000D01*
X0077500Y0050031D02*
X0079500Y0050031D01*
X0079500Y0048063D02*
X0077500Y0048063D01*
X0077500Y0046094D02*
X0079500Y0046094D01*
X0081994Y0043600D02*
X0081994Y0041600D01*
X0083963Y0041600D02*
X0083963Y0043600D01*
X0085931Y0043600D02*
X0085931Y0041600D01*
X0087900Y0041600D02*
X0087900Y0043600D01*
X0089869Y0043600D02*
X0089869Y0041600D01*
X0091837Y0041600D02*
X0091837Y0043600D01*
X0093806Y0043600D02*
X0093806Y0041600D01*
X0096300Y0046094D02*
X0098300Y0046094D01*
X0098300Y0048063D02*
X0096300Y0048063D01*
X0096300Y0050031D02*
X0098300Y0050031D01*
X0098300Y0052000D02*
X0096300Y0052000D01*
X0096300Y0053969D02*
X0098300Y0053969D01*
X0098300Y0055937D02*
X0096300Y0055937D01*
X0096300Y0057906D02*
X0098300Y0057906D01*
X0093806Y0060400D02*
X0093806Y0062400D01*
X0091837Y0062400D02*
X0091837Y0060400D01*
X0089869Y0060400D02*
X0089869Y0062400D01*
X0087900Y0062400D02*
X0087900Y0060400D01*
X0085931Y0060400D02*
X0085931Y0062400D01*
X0083963Y0062400D02*
X0083963Y0060400D01*
X0081994Y0060400D02*
X0081994Y0062400D01*
D13*
X0084900Y0055000D03*
X0090900Y0055000D03*
X0090900Y0049000D03*
X0084900Y0049000D03*
D14*
X0083039Y0026067D02*
X0077135Y0026067D01*
X0083039Y0026067D02*
X0083039Y0021933D01*
X0077135Y0021933D01*
X0077135Y0026067D01*
X0077135Y0023704D02*
X0083039Y0023704D01*
X0083039Y0025475D02*
X0077135Y0025475D01*
X0087961Y0026067D02*
X0093865Y0026067D01*
X0093865Y0021933D01*
X0087961Y0021933D01*
X0087961Y0026067D01*
X0087961Y0023704D02*
X0093865Y0023704D01*
X0093865Y0025475D02*
X0087961Y0025475D01*
X0121233Y0050835D02*
X0121233Y0056739D01*
X0125367Y0056739D01*
X0125367Y0050835D01*
X0121233Y0050835D01*
X0121233Y0052606D02*
X0125367Y0052606D01*
X0125367Y0054377D02*
X0121233Y0054377D01*
X0121233Y0056148D02*
X0125367Y0056148D01*
X0121233Y0061661D02*
X0121233Y0067565D01*
X0125367Y0067565D01*
X0125367Y0061661D01*
X0121233Y0061661D01*
X0121233Y0063432D02*
X0125367Y0063432D01*
X0125367Y0065203D02*
X0121233Y0065203D01*
X0121233Y0066974D02*
X0125367Y0066974D01*
X0125765Y0076567D02*
X0119861Y0076567D01*
X0125765Y0076567D02*
X0125765Y0072433D01*
X0119861Y0072433D01*
X0119861Y0076567D01*
X0119861Y0074204D02*
X0125765Y0074204D01*
X0125765Y0075975D02*
X0119861Y0075975D01*
X0114939Y0076567D02*
X0109035Y0076567D01*
X0114939Y0076567D02*
X0114939Y0072433D01*
X0109035Y0072433D01*
X0109035Y0076567D01*
X0109035Y0074204D02*
X0114939Y0074204D01*
X0114939Y0075975D02*
X0109035Y0075975D01*
X0105465Y0076267D02*
X0099561Y0076267D01*
X0105465Y0076267D02*
X0105465Y0072133D01*
X0099561Y0072133D01*
X0099561Y0076267D01*
X0099561Y0073904D02*
X0105465Y0073904D01*
X0105465Y0075675D02*
X0099561Y0075675D01*
X0094639Y0076267D02*
X0088735Y0076267D01*
X0094639Y0076267D02*
X0094639Y0072133D01*
X0088735Y0072133D01*
X0088735Y0076267D01*
X0088735Y0073904D02*
X0094639Y0073904D01*
X0094639Y0075675D02*
X0088735Y0075675D01*
D15*
X0149100Y0056837D03*
X0149100Y0048963D03*
M02*
