G75*
%MOIN*%
%OFA0B0*%
%FSLAX25Y25*%
%IPPOS*%
%LPD*%
%AMOC8*
5,1,8,0,0,1.08239X$1,22.5*
%
%ADD10C,0.00000*%
%ADD11C,0.01535*%
%ADD12C,0.01200*%
%ADD13R,0.04000X0.04000*%
%ADD14C,0.01160*%
%ADD15R,0.00800X0.03000*%
%ADD16C,0.01772*%
%ADD17R,0.03937X0.03937*%
%ADD18C,0.06000*%
%ADD19C,0.01600*%
%ADD20OC8,0.03200*%
%ADD21C,0.01000*%
%ADD22C,0.02400*%
%ADD23OC8,0.03169*%
D10*
X0001600Y0001600D02*
X0161049Y0001600D01*
X0161049Y0107899D01*
X0001600Y0107899D01*
X0001600Y0001600D01*
D11*
X0066786Y0024962D02*
X0066786Y0028546D01*
X0066786Y0024962D02*
X0062414Y0024962D01*
X0062414Y0028546D01*
X0066786Y0028546D01*
X0066786Y0026496D02*
X0062414Y0026496D01*
X0062414Y0028030D02*
X0066786Y0028030D01*
X0070118Y0027155D02*
X0070118Y0023571D01*
X0070118Y0027155D02*
X0074882Y0027155D01*
X0074882Y0023571D01*
X0070118Y0023571D01*
X0070118Y0025105D02*
X0074882Y0025105D01*
X0074882Y0026639D02*
X0070118Y0026639D01*
X0070118Y0031445D02*
X0070118Y0035029D01*
X0074882Y0035029D01*
X0074882Y0031445D01*
X0070118Y0031445D01*
X0070118Y0032979D02*
X0074882Y0032979D01*
X0074882Y0034513D02*
X0070118Y0034513D01*
X0066786Y0035238D02*
X0066786Y0031654D01*
X0062414Y0031654D01*
X0062414Y0035238D01*
X0066786Y0035238D01*
X0066786Y0033188D02*
X0062414Y0033188D01*
X0062414Y0034722D02*
X0066786Y0034722D01*
X0080671Y0029918D02*
X0084255Y0029918D01*
X0080671Y0029918D02*
X0080671Y0034682D01*
X0084255Y0034682D01*
X0084255Y0029918D01*
X0084255Y0031452D02*
X0080671Y0031452D01*
X0080671Y0032986D02*
X0084255Y0032986D01*
X0084255Y0034520D02*
X0080671Y0034520D01*
X0088545Y0029918D02*
X0092129Y0029918D01*
X0088545Y0029918D02*
X0088545Y0034682D01*
X0092129Y0034682D01*
X0092129Y0029918D01*
X0092129Y0031452D02*
X0088545Y0031452D01*
X0088545Y0032986D02*
X0092129Y0032986D01*
X0092129Y0034520D02*
X0088545Y0034520D01*
X0115282Y0049471D02*
X0115282Y0053055D01*
X0115282Y0049471D02*
X0110518Y0049471D01*
X0110518Y0053055D01*
X0115282Y0053055D01*
X0115282Y0051005D02*
X0110518Y0051005D01*
X0110518Y0052539D02*
X0115282Y0052539D01*
X0115282Y0057345D02*
X0115282Y0060929D01*
X0115282Y0057345D02*
X0110518Y0057345D01*
X0110518Y0060929D01*
X0115282Y0060929D01*
X0115282Y0058879D02*
X0110518Y0058879D01*
X0110518Y0060413D02*
X0115282Y0060413D01*
X0114045Y0063918D02*
X0117629Y0063918D01*
X0114045Y0063918D02*
X0114045Y0068682D01*
X0117629Y0068682D01*
X0117629Y0063918D01*
X0117629Y0065452D02*
X0114045Y0065452D01*
X0114045Y0066986D02*
X0117629Y0066986D01*
X0117629Y0068520D02*
X0114045Y0068520D01*
X0109755Y0063918D02*
X0106171Y0063918D01*
X0106171Y0068682D01*
X0109755Y0068682D01*
X0109755Y0063918D01*
X0109755Y0065452D02*
X0106171Y0065452D01*
X0106171Y0066986D02*
X0109755Y0066986D01*
X0109755Y0068520D02*
X0106171Y0068520D01*
X0105229Y0079518D02*
X0101645Y0079518D01*
X0101645Y0084282D01*
X0105229Y0084282D01*
X0105229Y0079518D01*
X0105229Y0081052D02*
X0101645Y0081052D01*
X0101645Y0082586D02*
X0105229Y0082586D01*
X0105229Y0084120D02*
X0101645Y0084120D01*
X0097355Y0079518D02*
X0093771Y0079518D01*
X0093771Y0084282D01*
X0097355Y0084282D01*
X0097355Y0079518D01*
X0097355Y0081052D02*
X0093771Y0081052D01*
X0093771Y0082586D02*
X0097355Y0082586D01*
X0097355Y0084120D02*
X0093771Y0084120D01*
X0028586Y0070038D02*
X0028586Y0066454D01*
X0024214Y0066454D01*
X0024214Y0070038D01*
X0028586Y0070038D01*
X0028586Y0067988D02*
X0024214Y0067988D01*
X0024214Y0069522D02*
X0028586Y0069522D01*
X0028586Y0063346D02*
X0028586Y0059762D01*
X0024214Y0059762D01*
X0024214Y0063346D01*
X0028586Y0063346D01*
X0028586Y0061296D02*
X0024214Y0061296D01*
X0024214Y0062830D02*
X0028586Y0062830D01*
X0018386Y0063346D02*
X0018386Y0059762D01*
X0014014Y0059762D01*
X0014014Y0063346D01*
X0018386Y0063346D01*
X0018386Y0061296D02*
X0014014Y0061296D01*
X0014014Y0062830D02*
X0018386Y0062830D01*
X0018386Y0066454D02*
X0018386Y0070038D01*
X0018386Y0066454D02*
X0014014Y0066454D01*
X0014014Y0070038D01*
X0018386Y0070038D01*
X0018386Y0067988D02*
X0014014Y0067988D01*
X0014014Y0069522D02*
X0018386Y0069522D01*
D12*
X0016200Y0061554D02*
X0016600Y0061154D01*
X0016600Y0054100D01*
X0022637Y0048063D01*
X0078500Y0048063D01*
X0077500Y0048063D02*
X0079500Y0048063D01*
X0079500Y0050031D02*
X0077500Y0050031D01*
X0078500Y0050031D02*
X0030669Y0050031D01*
X0026600Y0054100D01*
X0026600Y0061354D01*
X0026400Y0061554D01*
X0036600Y0061600D02*
X0036600Y0099100D01*
X0046600Y0099100D02*
X0046600Y0061600D01*
X0054231Y0053969D01*
X0078500Y0053969D01*
X0077500Y0053969D02*
X0079500Y0053969D01*
X0079500Y0052000D02*
X0077500Y0052000D01*
X0078500Y0052000D02*
X0046200Y0052000D01*
X0036600Y0061600D01*
X0056600Y0061600D02*
X0056600Y0099100D01*
X0066600Y0099100D02*
X0066600Y0061600D01*
X0070294Y0057906D01*
X0078500Y0057906D01*
X0077500Y0057906D02*
X0079500Y0057906D01*
X0079500Y0055937D02*
X0077500Y0055937D01*
X0078500Y0055937D02*
X0062263Y0055937D01*
X0056600Y0061600D01*
X0074100Y0069100D02*
X0074100Y0077800D01*
X0076500Y0080200D01*
X0076600Y0099100D01*
X0076600Y0097900D01*
X0086600Y0099100D02*
X0086600Y0086600D01*
X0076600Y0076600D01*
X0076600Y0070600D01*
X0083963Y0063237D01*
X0083963Y0061400D01*
X0083963Y0060400D02*
X0083963Y0062400D01*
X0085931Y0062400D02*
X0085931Y0060400D01*
X0085931Y0061400D02*
X0085931Y0064769D01*
X0079100Y0071600D01*
X0079100Y0076300D01*
X0096500Y0093700D01*
X0096600Y0099100D01*
X0100900Y0091700D02*
X0106600Y0099100D01*
X0116600Y0099100D02*
X0116600Y0094500D01*
X0112000Y0089900D01*
X0112000Y0089200D01*
X0110900Y0088100D01*
X0102500Y0088100D01*
X0102400Y0088000D01*
X0100200Y0088000D01*
X0095563Y0083363D01*
X0095563Y0081900D01*
X0095900Y0086500D02*
X0092000Y0086500D01*
X0081800Y0076300D01*
X0081800Y0072100D01*
X0087900Y0066000D01*
X0087900Y0061400D01*
X0087900Y0060400D02*
X0087900Y0062400D01*
X0089869Y0062400D02*
X0089869Y0060400D01*
X0089869Y0061400D02*
X0089869Y0066569D01*
X0090000Y0066700D01*
X0091837Y0065537D02*
X0092600Y0065600D01*
X0092900Y0065600D01*
X0095500Y0068200D01*
X0095500Y0064700D02*
X0097200Y0064700D01*
X0098800Y0066300D01*
X0095500Y0064700D02*
X0093806Y0063006D01*
X0093806Y0061400D01*
X0093806Y0060400D02*
X0093806Y0062400D01*
X0091837Y0062400D02*
X0091837Y0060400D01*
X0091837Y0061400D02*
X0091837Y0059000D01*
X0091837Y0057163D01*
X0092450Y0056550D01*
X0090900Y0055000D01*
X0090900Y0049000D01*
X0087900Y0052000D01*
X0084900Y0055000D01*
X0087900Y0052000D02*
X0084900Y0049000D01*
X0087900Y0045500D02*
X0087900Y0042600D01*
X0087900Y0041600D02*
X0087900Y0043600D01*
X0085931Y0043600D02*
X0085931Y0041600D01*
X0085931Y0042600D02*
X0085931Y0037631D01*
X0085500Y0037200D01*
X0083963Y0038863D02*
X0082500Y0037400D01*
X0080000Y0037400D01*
X0077700Y0035100D01*
X0074363Y0035100D01*
X0072500Y0033237D01*
X0076800Y0037100D02*
X0078900Y0039200D01*
X0080400Y0039200D01*
X0081994Y0040794D01*
X0081994Y0041194D01*
X0081994Y0042600D01*
X0081994Y0041600D02*
X0081994Y0043600D01*
X0083963Y0043600D02*
X0083963Y0041600D01*
X0083963Y0042600D02*
X0083963Y0038863D01*
X0081994Y0041194D02*
X0081894Y0041194D01*
X0079500Y0046094D02*
X0077500Y0046094D01*
X0078500Y0046094D02*
X0014606Y0046094D01*
X0006600Y0054100D01*
X0006600Y0099100D01*
X0074100Y0069100D02*
X0081994Y0061206D01*
X0081994Y0061400D01*
X0081994Y0060400D02*
X0081994Y0062400D01*
X0091837Y0061400D02*
X0091837Y0065537D01*
X0090387Y0072900D02*
X0085500Y0072900D01*
X0090387Y0072900D02*
X0091687Y0074200D01*
X0103437Y0081900D02*
X0103737Y0081600D01*
X0109100Y0081600D01*
X0114100Y0086600D01*
X0119100Y0086600D01*
X0126500Y0094000D01*
X0126600Y0099100D01*
X0136600Y0099100D02*
X0136500Y0094000D01*
X0124100Y0081600D01*
X0119087Y0081600D01*
X0111987Y0074500D01*
X0119651Y0079053D02*
X0119998Y0079400D01*
X0125011Y0079400D01*
X0126300Y0080689D01*
X0137111Y0091500D01*
X0137515Y0091500D01*
X0139206Y0092200D01*
X0140500Y0093494D01*
X0141200Y0095185D01*
X0141200Y0103015D01*
X0140500Y0104706D01*
X0139206Y0106000D01*
X0138483Y0106299D01*
X0159449Y0106299D01*
X0159449Y0015643D01*
X0158911Y0016034D01*
X0158266Y0016363D01*
X0157577Y0016587D01*
X0156900Y0016694D01*
X0156900Y0009500D01*
X0156100Y0009500D01*
X0156100Y0016694D01*
X0155423Y0016587D01*
X0154734Y0016363D01*
X0154089Y0016034D01*
X0153503Y0015609D01*
X0152991Y0015097D01*
X0152566Y0014511D01*
X0152237Y0013866D01*
X0152013Y0013177D01*
X0151900Y0012462D01*
X0151900Y0009500D01*
X0156100Y0009500D01*
X0156100Y0008700D01*
X0151900Y0008700D01*
X0151900Y0005738D01*
X0152013Y0005023D01*
X0152237Y0004334D01*
X0152566Y0003689D01*
X0152921Y0003200D01*
X0150105Y0003200D01*
X0150400Y0003494D01*
X0151100Y0005185D01*
X0151100Y0013015D01*
X0150741Y0013881D01*
X0151474Y0014614D01*
X0151900Y0015643D01*
X0151900Y0045563D01*
X0152668Y0046332D01*
X0152668Y0051594D01*
X0151731Y0052531D01*
X0146469Y0052531D01*
X0145531Y0051594D01*
X0145531Y0046332D01*
X0146300Y0045563D01*
X0146300Y0017360D01*
X0145640Y0016700D01*
X0145585Y0016700D01*
X0143894Y0016000D01*
X0142600Y0014706D01*
X0141900Y0013015D01*
X0141900Y0005185D01*
X0142600Y0003494D01*
X0142895Y0003200D01*
X0140205Y0003200D01*
X0140500Y0003494D01*
X0141200Y0005185D01*
X0141200Y0013015D01*
X0140500Y0014706D01*
X0139206Y0016000D01*
X0138715Y0016203D01*
X0138711Y0016500D01*
X0143111Y0020900D01*
X0144400Y0022189D01*
X0144400Y0066511D01*
X0143600Y0067311D01*
X0142311Y0068600D01*
X0134125Y0068600D01*
X0133125Y0069600D01*
X0130475Y0069600D01*
X0129475Y0068600D01*
X0127629Y0068600D01*
X0127474Y0068974D01*
X0126775Y0069674D01*
X0126114Y0069947D01*
X0126261Y0069947D01*
X0127174Y0070326D01*
X0127874Y0071025D01*
X0128252Y0071939D01*
X0128252Y0077061D01*
X0127874Y0077975D01*
X0127174Y0078674D01*
X0126261Y0079053D01*
X0119651Y0079053D01*
X0125115Y0079503D02*
X0159449Y0079503D01*
X0159449Y0078305D02*
X0127544Y0078305D01*
X0128233Y0077106D02*
X0159449Y0077106D01*
X0159449Y0075908D02*
X0128252Y0075908D01*
X0128252Y0074709D02*
X0159449Y0074709D01*
X0159449Y0073511D02*
X0128252Y0073511D01*
X0128252Y0072312D02*
X0159449Y0072312D01*
X0159449Y0071114D02*
X0127910Y0071114D01*
X0126192Y0069915D02*
X0159449Y0069915D01*
X0159449Y0068717D02*
X0134009Y0068717D01*
X0131800Y0066400D02*
X0125087Y0066400D01*
X0123300Y0064613D01*
X0123813Y0064100D01*
X0127581Y0068717D02*
X0129591Y0068717D01*
X0131800Y0066400D02*
X0141400Y0066400D01*
X0142200Y0065600D01*
X0142200Y0058600D01*
X0141800Y0058200D01*
X0136500Y0058200D01*
X0130600Y0052300D01*
X0126500Y0050587D02*
X0123300Y0053787D01*
X0126500Y0050587D02*
X0126600Y0009100D01*
X0122000Y0008791D02*
X0121200Y0008791D01*
X0121200Y0007593D02*
X0122000Y0007593D01*
X0122000Y0006394D02*
X0121200Y0006394D01*
X0121200Y0005196D02*
X0122000Y0005196D01*
X0122000Y0005185D02*
X0122700Y0003494D01*
X0122995Y0003200D01*
X0120205Y0003200D01*
X0120500Y0003494D01*
X0121200Y0005185D01*
X0121200Y0013015D01*
X0120500Y0014706D01*
X0119206Y0016000D01*
X0117515Y0016700D01*
X0115685Y0016700D01*
X0113994Y0016000D01*
X0112700Y0014706D01*
X0112000Y0013015D01*
X0112000Y0005185D01*
X0112700Y0003494D01*
X0112995Y0003200D01*
X0110205Y0003200D01*
X0110500Y0003494D01*
X0111200Y0005185D01*
X0111200Y0013015D01*
X0110500Y0014706D01*
X0109206Y0016000D01*
X0107515Y0016700D01*
X0105685Y0016700D01*
X0103994Y0016000D01*
X0102700Y0014706D01*
X0102000Y0013015D01*
X0102000Y0005185D01*
X0102700Y0003494D01*
X0102995Y0003200D01*
X0100205Y0003200D01*
X0100500Y0003494D01*
X0101200Y0005185D01*
X0101200Y0013015D01*
X0100500Y0014706D01*
X0099206Y0016000D01*
X0097515Y0016700D01*
X0095685Y0016700D01*
X0093994Y0016000D01*
X0092700Y0014706D01*
X0092000Y0013015D01*
X0092000Y0005185D01*
X0092700Y0003494D01*
X0092995Y0003200D01*
X0090205Y0003200D01*
X0090500Y0003494D01*
X0091200Y0005185D01*
X0091200Y0013015D01*
X0090500Y0014706D01*
X0089206Y0016000D01*
X0087515Y0016700D01*
X0085685Y0016700D01*
X0083994Y0016000D01*
X0082700Y0014706D01*
X0082000Y0013015D01*
X0082000Y0005185D01*
X0082700Y0003494D01*
X0082995Y0003200D01*
X0080205Y0003200D01*
X0080500Y0003494D01*
X0081200Y0005185D01*
X0081200Y0013015D01*
X0080500Y0014706D01*
X0079206Y0016000D01*
X0077515Y0016700D01*
X0075685Y0016700D01*
X0073994Y0016000D01*
X0072700Y0014706D01*
X0072000Y0013015D01*
X0072000Y0011300D01*
X0071200Y0011300D01*
X0071200Y0013015D01*
X0070500Y0014706D01*
X0069206Y0016000D01*
X0067515Y0016700D01*
X0065685Y0016700D01*
X0063994Y0016000D01*
X0062700Y0014706D01*
X0062000Y0013015D01*
X0062000Y0005185D01*
X0062700Y0003494D01*
X0062995Y0003200D01*
X0060205Y0003200D01*
X0060500Y0003494D01*
X0061200Y0005185D01*
X0061200Y0013015D01*
X0060500Y0014706D01*
X0059206Y0016000D01*
X0057515Y0016700D01*
X0055685Y0016700D01*
X0053994Y0016000D01*
X0052700Y0014706D01*
X0052000Y0013015D01*
X0052000Y0005185D01*
X0052700Y0003494D01*
X0052995Y0003200D01*
X0050205Y0003200D01*
X0050500Y0003494D01*
X0051200Y0005185D01*
X0051200Y0013015D01*
X0050500Y0014706D01*
X0049206Y0016000D01*
X0047515Y0016700D01*
X0045685Y0016700D01*
X0043994Y0016000D01*
X0042700Y0014706D01*
X0042000Y0013015D01*
X0042000Y0005185D01*
X0042700Y0003494D01*
X0042995Y0003200D01*
X0040179Y0003200D01*
X0040534Y0003689D01*
X0040863Y0004334D01*
X0041087Y0005023D01*
X0041200Y0005738D01*
X0041200Y0008700D01*
X0037000Y0008700D01*
X0037000Y0009500D01*
X0036200Y0009500D01*
X0036200Y0016694D01*
X0035523Y0016587D01*
X0034834Y0016363D01*
X0034189Y0016034D01*
X0033603Y0015609D01*
X0033091Y0015097D01*
X0032666Y0014511D01*
X0032337Y0013866D01*
X0032113Y0013177D01*
X0032000Y0012462D01*
X0032000Y0009500D01*
X0036200Y0009500D01*
X0036200Y0008700D01*
X0032000Y0008700D01*
X0032000Y0005738D01*
X0032113Y0005023D01*
X0032337Y0004334D01*
X0032666Y0003689D01*
X0033021Y0003200D01*
X0030205Y0003200D01*
X0030500Y0003494D01*
X0031200Y0005185D01*
X0031200Y0013015D01*
X0030500Y0014706D01*
X0029206Y0016000D01*
X0029139Y0016027D01*
X0030011Y0016900D01*
X0075998Y0016900D01*
X0076181Y0016773D01*
X0076884Y0016900D01*
X0077598Y0016900D01*
X0077755Y0017058D01*
X0077975Y0017097D01*
X0078382Y0017684D01*
X0078887Y0018189D01*
X0078887Y0018411D01*
X0079605Y0019447D01*
X0083534Y0019447D01*
X0084447Y0019826D01*
X0085147Y0020525D01*
X0085525Y0021437D01*
X0085570Y0021208D01*
X0085758Y0020756D01*
X0086030Y0020348D01*
X0086376Y0020002D01*
X0086783Y0019730D01*
X0087236Y0019543D01*
X0087716Y0019447D01*
X0090313Y0019447D01*
X0090313Y0023400D01*
X0091513Y0023400D01*
X0091513Y0019447D01*
X0094111Y0019447D01*
X0094591Y0019543D01*
X0095044Y0019730D01*
X0095451Y0020002D01*
X0095797Y0020348D01*
X0096069Y0020756D01*
X0096256Y0021208D01*
X0096352Y0021688D01*
X0096352Y0023400D01*
X0091513Y0023400D01*
X0091513Y0024600D01*
X0090313Y0024600D01*
X0090313Y0028553D01*
X0089737Y0028553D01*
X0089737Y0031700D01*
X0090937Y0031700D01*
X0090937Y0032900D01*
X0090937Y0035300D01*
X0090689Y0035300D01*
X0089737Y0036252D01*
X0089737Y0032900D01*
X0090937Y0032900D01*
X0094496Y0032900D01*
X0094496Y0033078D01*
X0095375Y0032200D01*
X0098000Y0032200D01*
X0098000Y0030775D01*
X0099875Y0028900D01*
X0102525Y0028900D01*
X0104400Y0030775D01*
X0104400Y0033400D01*
X0106625Y0033400D01*
X0106907Y0033682D01*
X0110500Y0030089D01*
X0110500Y0028675D01*
X0112375Y0026800D01*
X0115025Y0026800D01*
X0116900Y0028675D01*
X0116900Y0031325D01*
X0115275Y0032950D01*
X0116900Y0034575D01*
X0116900Y0036375D01*
X0117175Y0036100D01*
X0119825Y0036100D01*
X0121700Y0037975D01*
X0121700Y0040625D01*
X0119825Y0042500D01*
X0117175Y0042500D01*
X0116175Y0041500D01*
X0114811Y0041500D01*
X0113111Y0043200D01*
X0115125Y0043200D01*
X0117000Y0045075D01*
X0117000Y0047725D01*
X0116942Y0047783D01*
X0117650Y0048491D01*
X0117650Y0048863D01*
X0119688Y0048863D01*
X0119825Y0048726D01*
X0120739Y0048348D01*
X0124305Y0048348D01*
X0124383Y0016161D01*
X0123994Y0016000D01*
X0122700Y0014706D01*
X0122000Y0013015D01*
X0122000Y0005185D01*
X0122492Y0003997D02*
X0120708Y0003997D01*
X0121200Y0009990D02*
X0122000Y0009990D01*
X0122000Y0011188D02*
X0121200Y0011188D01*
X0121200Y0012387D02*
X0122000Y0012387D01*
X0122236Y0013585D02*
X0120964Y0013585D01*
X0120422Y0014784D02*
X0122778Y0014784D01*
X0123977Y0015982D02*
X0119223Y0015982D01*
X0121500Y0016800D02*
X0114800Y0023500D01*
X0090913Y0024000D01*
X0085013Y0016600D01*
X0083977Y0015982D02*
X0079223Y0015982D01*
X0078033Y0017181D02*
X0124381Y0017181D01*
X0124378Y0018379D02*
X0078887Y0018379D01*
X0076687Y0019100D02*
X0080087Y0024000D01*
X0085251Y0020776D02*
X0085749Y0020776D01*
X0087151Y0019578D02*
X0083849Y0019578D01*
X0082778Y0014784D02*
X0080422Y0014784D01*
X0080964Y0013585D02*
X0082236Y0013585D01*
X0082000Y0012387D02*
X0081200Y0012387D01*
X0081200Y0011188D02*
X0082000Y0011188D01*
X0082000Y0009990D02*
X0081200Y0009990D01*
X0081200Y0008791D02*
X0082000Y0008791D01*
X0082000Y0007593D02*
X0081200Y0007593D01*
X0081200Y0006394D02*
X0082000Y0006394D01*
X0082000Y0005196D02*
X0081200Y0005196D01*
X0080708Y0003997D02*
X0082492Y0003997D01*
X0076600Y0009100D02*
X0066600Y0009100D01*
X0062000Y0008791D02*
X0061200Y0008791D01*
X0061200Y0007593D02*
X0062000Y0007593D01*
X0062000Y0006394D02*
X0061200Y0006394D01*
X0061200Y0005196D02*
X0062000Y0005196D01*
X0062492Y0003997D02*
X0060708Y0003997D01*
X0061200Y0009990D02*
X0062000Y0009990D01*
X0062000Y0011188D02*
X0061200Y0011188D01*
X0061200Y0012387D02*
X0062000Y0012387D01*
X0062236Y0013585D02*
X0060964Y0013585D01*
X0060422Y0014784D02*
X0062778Y0014784D01*
X0063977Y0015982D02*
X0059223Y0015982D01*
X0053977Y0015982D02*
X0049223Y0015982D01*
X0050422Y0014784D02*
X0052778Y0014784D01*
X0052236Y0013585D02*
X0050964Y0013585D01*
X0051200Y0012387D02*
X0052000Y0012387D01*
X0052000Y0011188D02*
X0051200Y0011188D01*
X0051200Y0009990D02*
X0052000Y0009990D01*
X0052000Y0008791D02*
X0051200Y0008791D01*
X0051200Y0007593D02*
X0052000Y0007593D01*
X0052000Y0006394D02*
X0051200Y0006394D01*
X0051200Y0005196D02*
X0052000Y0005196D01*
X0052492Y0003997D02*
X0050708Y0003997D01*
X0042492Y0003997D02*
X0040691Y0003997D01*
X0041114Y0005196D02*
X0042000Y0005196D01*
X0042000Y0006394D02*
X0041200Y0006394D01*
X0041200Y0007593D02*
X0042000Y0007593D01*
X0042000Y0008791D02*
X0037000Y0008791D01*
X0036600Y0009100D02*
X0036500Y0014000D01*
X0039100Y0016600D01*
X0039011Y0016034D02*
X0038366Y0016363D01*
X0037677Y0016587D01*
X0037000Y0016694D01*
X0037000Y0009500D01*
X0041200Y0009500D01*
X0041200Y0012462D01*
X0041087Y0013177D01*
X0040863Y0013866D01*
X0040534Y0014511D01*
X0040109Y0015097D01*
X0039597Y0015609D01*
X0039011Y0016034D01*
X0039083Y0015982D02*
X0043977Y0015982D01*
X0042778Y0014784D02*
X0040336Y0014784D01*
X0040954Y0013585D02*
X0042236Y0013585D01*
X0042000Y0012387D02*
X0041200Y0012387D01*
X0041200Y0011188D02*
X0042000Y0011188D01*
X0042000Y0009990D02*
X0041200Y0009990D01*
X0037000Y0009990D02*
X0036200Y0009990D01*
X0036200Y0011188D02*
X0037000Y0011188D01*
X0037000Y0012387D02*
X0036200Y0012387D01*
X0036200Y0013585D02*
X0037000Y0013585D01*
X0037000Y0014784D02*
X0036200Y0014784D01*
X0036200Y0015982D02*
X0037000Y0015982D01*
X0034117Y0015982D02*
X0029223Y0015982D01*
X0030422Y0014784D02*
X0032864Y0014784D01*
X0032246Y0013585D02*
X0030964Y0013585D01*
X0031200Y0012387D02*
X0032000Y0012387D01*
X0032000Y0011188D02*
X0031200Y0011188D01*
X0031200Y0009990D02*
X0032000Y0009990D01*
X0031200Y0008791D02*
X0036200Y0008791D01*
X0032000Y0007593D02*
X0031200Y0007593D01*
X0031200Y0006394D02*
X0032000Y0006394D01*
X0032086Y0005196D02*
X0031200Y0005196D01*
X0030708Y0003997D02*
X0032509Y0003997D01*
X0026600Y0009100D02*
X0026500Y0016500D01*
X0029100Y0019100D01*
X0076687Y0019100D01*
X0073977Y0015982D02*
X0069223Y0015982D01*
X0070422Y0014784D02*
X0072778Y0014784D01*
X0072236Y0013585D02*
X0070964Y0013585D01*
X0071200Y0012387D02*
X0072000Y0012387D01*
X0089223Y0015982D02*
X0093977Y0015982D01*
X0092778Y0014784D02*
X0090422Y0014784D01*
X0090964Y0013585D02*
X0092236Y0013585D01*
X0092000Y0012387D02*
X0091200Y0012387D01*
X0091200Y0011188D02*
X0092000Y0011188D01*
X0092000Y0009990D02*
X0091200Y0009990D01*
X0091200Y0008791D02*
X0092000Y0008791D01*
X0092000Y0007593D02*
X0091200Y0007593D01*
X0091200Y0006394D02*
X0092000Y0006394D01*
X0092000Y0005196D02*
X0091200Y0005196D01*
X0090708Y0003997D02*
X0092492Y0003997D01*
X0100708Y0003997D02*
X0102492Y0003997D01*
X0102000Y0005196D02*
X0101200Y0005196D01*
X0101200Y0006394D02*
X0102000Y0006394D01*
X0102000Y0007593D02*
X0101200Y0007593D01*
X0101200Y0008791D02*
X0102000Y0008791D01*
X0102000Y0009990D02*
X0101200Y0009990D01*
X0101200Y0011188D02*
X0102000Y0011188D01*
X0102000Y0012387D02*
X0101200Y0012387D01*
X0100964Y0013585D02*
X0102236Y0013585D01*
X0102778Y0014784D02*
X0100422Y0014784D01*
X0099223Y0015982D02*
X0103977Y0015982D01*
X0109223Y0015982D02*
X0113977Y0015982D01*
X0112778Y0014784D02*
X0110422Y0014784D01*
X0110964Y0013585D02*
X0112236Y0013585D01*
X0112000Y0012387D02*
X0111200Y0012387D01*
X0111200Y0011188D02*
X0112000Y0011188D01*
X0112000Y0009990D02*
X0111200Y0009990D01*
X0111200Y0008791D02*
X0112000Y0008791D01*
X0112000Y0007593D02*
X0111200Y0007593D01*
X0111200Y0006394D02*
X0112000Y0006394D01*
X0112000Y0005196D02*
X0111200Y0005196D01*
X0110708Y0003997D02*
X0112492Y0003997D01*
X0124375Y0019578D02*
X0094675Y0019578D01*
X0096078Y0020776D02*
X0124372Y0020776D01*
X0124369Y0021975D02*
X0096352Y0021975D01*
X0096352Y0023173D02*
X0124366Y0023173D01*
X0124363Y0024372D02*
X0091513Y0024372D01*
X0091513Y0024600D02*
X0096352Y0024600D01*
X0096352Y0026312D01*
X0096256Y0026792D01*
X0096069Y0027244D01*
X0095797Y0027652D01*
X0095451Y0027998D01*
X0095044Y0028270D01*
X0094591Y0028457D01*
X0094111Y0028553D01*
X0094064Y0028553D01*
X0094227Y0028797D01*
X0094405Y0029227D01*
X0094496Y0029685D01*
X0094496Y0031700D01*
X0090937Y0031700D01*
X0090937Y0027550D01*
X0091513Y0027550D01*
X0091513Y0024600D01*
X0091513Y0025570D02*
X0090313Y0025570D01*
X0090313Y0026769D02*
X0091513Y0026769D01*
X0090937Y0027967D02*
X0090313Y0027967D01*
X0089737Y0029166D02*
X0090937Y0029166D01*
X0090937Y0030364D02*
X0089737Y0030364D01*
X0089737Y0031563D02*
X0090937Y0031563D01*
X0090937Y0032761D02*
X0094813Y0032761D01*
X0094496Y0031563D02*
X0098000Y0031563D01*
X0098410Y0030364D02*
X0094496Y0030364D01*
X0094379Y0029166D02*
X0099609Y0029166D01*
X0102791Y0029166D02*
X0110500Y0029166D01*
X0110224Y0030364D02*
X0103990Y0030364D01*
X0104400Y0031563D02*
X0109026Y0031563D01*
X0107827Y0032761D02*
X0104400Y0032761D01*
X0101600Y0032500D02*
X0101200Y0032100D01*
X0101600Y0032500D02*
X0101600Y0036600D01*
X0098700Y0039500D01*
X0092300Y0039500D01*
X0091837Y0039963D01*
X0091837Y0042600D01*
X0091837Y0041600D02*
X0091837Y0043600D01*
X0089869Y0043600D02*
X0089869Y0041600D01*
X0093806Y0041600D02*
X0093806Y0043600D01*
X0093806Y0042600D02*
X0097300Y0046094D01*
X0096300Y0046094D02*
X0098300Y0046094D01*
X0098206Y0046094D02*
X0104000Y0040300D01*
X0104600Y0039600D01*
X0104600Y0037300D01*
X0105300Y0036600D01*
X0108600Y0035100D02*
X0108600Y0038600D01*
X0099137Y0048063D01*
X0097300Y0048063D01*
X0096300Y0048063D02*
X0098300Y0048063D01*
X0098300Y0050031D02*
X0096300Y0050031D01*
X0097300Y0050031D02*
X0100169Y0050031D01*
X0110600Y0039600D01*
X0110600Y0039100D01*
X0111600Y0038000D01*
X0113700Y0035900D01*
X0116900Y0036357D02*
X0116918Y0036357D01*
X0116900Y0035158D02*
X0124337Y0035158D01*
X0124340Y0033960D02*
X0116285Y0033960D01*
X0115464Y0032761D02*
X0124343Y0032761D01*
X0124346Y0031563D02*
X0116663Y0031563D01*
X0116900Y0030364D02*
X0124349Y0030364D01*
X0124352Y0029166D02*
X0116900Y0029166D01*
X0116193Y0027967D02*
X0124355Y0027967D01*
X0124357Y0026769D02*
X0096261Y0026769D01*
X0096352Y0025570D02*
X0124360Y0025570D01*
X0113700Y0030000D02*
X0108600Y0035100D01*
X0113900Y0039300D02*
X0118500Y0039300D01*
X0121700Y0038754D02*
X0124329Y0038754D01*
X0124326Y0039952D02*
X0121700Y0039952D01*
X0121175Y0041151D02*
X0124323Y0041151D01*
X0124320Y0042349D02*
X0119976Y0042349D01*
X0117024Y0042349D02*
X0113962Y0042349D01*
X0115473Y0043548D02*
X0124317Y0043548D01*
X0124314Y0044746D02*
X0116672Y0044746D01*
X0117000Y0045945D02*
X0124311Y0045945D01*
X0124308Y0047143D02*
X0117000Y0047143D01*
X0117501Y0048342D02*
X0124305Y0048342D01*
X0113800Y0046400D02*
X0113000Y0046600D01*
X0110100Y0046600D01*
X0102731Y0053969D01*
X0097300Y0053969D01*
X0096300Y0053969D02*
X0098300Y0053969D01*
X0098300Y0052000D02*
X0096300Y0052000D01*
X0097300Y0052000D02*
X0101200Y0052000D01*
X0113900Y0039300D01*
X0120082Y0036357D02*
X0124334Y0036357D01*
X0124331Y0037555D02*
X0121281Y0037555D01*
X0111207Y0027967D02*
X0095481Y0027967D01*
X0091513Y0023173D02*
X0090313Y0023173D01*
X0090600Y0023600D02*
X0090600Y0035100D01*
X0088100Y0037600D01*
X0089737Y0035158D02*
X0090937Y0035158D01*
X0090937Y0033960D02*
X0089737Y0033960D01*
X0093200Y0037500D02*
X0094100Y0036600D01*
X0096600Y0036600D01*
X0096700Y0035400D01*
X0093200Y0037500D02*
X0091600Y0037500D01*
X0097300Y0046094D02*
X0098206Y0046094D01*
X0105500Y0054700D02*
X0104263Y0055937D01*
X0097300Y0055937D01*
X0096300Y0055937D02*
X0098300Y0055937D01*
X0098300Y0057906D02*
X0096300Y0057906D01*
X0097300Y0057906D02*
X0101206Y0057906D01*
X0103000Y0059700D01*
X0097300Y0057906D02*
X0093806Y0057906D01*
X0092450Y0056550D01*
X0068600Y0040300D02*
X0040900Y0040300D01*
X0037554Y0026754D02*
X0033500Y0022700D01*
X0037554Y0026754D02*
X0064600Y0026754D01*
X0090313Y0021975D02*
X0091513Y0021975D01*
X0091513Y0020776D02*
X0090313Y0020776D01*
X0090313Y0019578D02*
X0091513Y0019578D01*
X0136500Y0017400D02*
X0136600Y0009100D01*
X0141200Y0008791D02*
X0141900Y0008791D01*
X0141900Y0007593D02*
X0141200Y0007593D01*
X0141200Y0006394D02*
X0141900Y0006394D01*
X0141900Y0005196D02*
X0141200Y0005196D01*
X0140708Y0003997D02*
X0142392Y0003997D01*
X0141900Y0009990D02*
X0141200Y0009990D01*
X0141200Y0011188D02*
X0141900Y0011188D01*
X0141900Y0012387D02*
X0141200Y0012387D01*
X0140964Y0013585D02*
X0142136Y0013585D01*
X0142678Y0014784D02*
X0140422Y0014784D01*
X0139223Y0015982D02*
X0143877Y0015982D01*
X0146121Y0017181D02*
X0139392Y0017181D01*
X0140590Y0018379D02*
X0146300Y0018379D01*
X0146300Y0019578D02*
X0141789Y0019578D01*
X0142987Y0020776D02*
X0146300Y0020776D01*
X0146300Y0021975D02*
X0144186Y0021975D01*
X0144400Y0023173D02*
X0146300Y0023173D01*
X0146300Y0024372D02*
X0144400Y0024372D01*
X0144400Y0025570D02*
X0146300Y0025570D01*
X0146300Y0026769D02*
X0144400Y0026769D01*
X0144400Y0027967D02*
X0146300Y0027967D01*
X0146300Y0029166D02*
X0144400Y0029166D01*
X0144400Y0030364D02*
X0146300Y0030364D01*
X0146300Y0031563D02*
X0144400Y0031563D01*
X0144400Y0032761D02*
X0146300Y0032761D01*
X0146300Y0033960D02*
X0144400Y0033960D01*
X0144400Y0035158D02*
X0146300Y0035158D01*
X0146300Y0036357D02*
X0144400Y0036357D01*
X0144400Y0037555D02*
X0146300Y0037555D01*
X0146300Y0038754D02*
X0144400Y0038754D01*
X0144400Y0039952D02*
X0146300Y0039952D01*
X0146300Y0041151D02*
X0144400Y0041151D01*
X0144400Y0042349D02*
X0146300Y0042349D01*
X0146300Y0043548D02*
X0144400Y0043548D01*
X0144400Y0044746D02*
X0146300Y0044746D01*
X0145918Y0045945D02*
X0144400Y0045945D01*
X0144400Y0047143D02*
X0145531Y0047143D01*
X0145531Y0048342D02*
X0144400Y0048342D01*
X0144400Y0049540D02*
X0145531Y0049540D01*
X0145531Y0050739D02*
X0144400Y0050739D01*
X0144400Y0051937D02*
X0145875Y0051937D01*
X0146469Y0053269D02*
X0145531Y0054206D01*
X0145531Y0059468D01*
X0146469Y0060405D01*
X0146900Y0060405D01*
X0146900Y0060775D01*
X0145900Y0061775D01*
X0145900Y0064425D01*
X0147775Y0066300D01*
X0150425Y0066300D01*
X0152300Y0064425D01*
X0152300Y0061775D01*
X0151300Y0060775D01*
X0151300Y0060405D01*
X0151731Y0060405D01*
X0152668Y0059468D01*
X0152668Y0054206D01*
X0151731Y0053269D01*
X0146469Y0053269D01*
X0145531Y0054334D02*
X0144400Y0054334D01*
X0144400Y0053136D02*
X0159449Y0053136D01*
X0159449Y0054334D02*
X0152668Y0054334D01*
X0152668Y0055533D02*
X0159449Y0055533D01*
X0159449Y0056732D02*
X0152668Y0056732D01*
X0152668Y0057930D02*
X0159449Y0057930D01*
X0159449Y0059129D02*
X0152668Y0059129D01*
X0151810Y0060327D02*
X0159449Y0060327D01*
X0159449Y0061526D02*
X0152051Y0061526D01*
X0152300Y0062724D02*
X0159449Y0062724D01*
X0159449Y0063923D02*
X0152300Y0063923D01*
X0151604Y0065121D02*
X0159449Y0065121D01*
X0159449Y0066320D02*
X0144400Y0066320D01*
X0144400Y0065121D02*
X0146596Y0065121D01*
X0145900Y0063923D02*
X0144400Y0063923D01*
X0144400Y0062724D02*
X0145900Y0062724D01*
X0146149Y0061526D02*
X0144400Y0061526D01*
X0144400Y0060327D02*
X0146390Y0060327D01*
X0145531Y0059129D02*
X0144400Y0059129D01*
X0144400Y0057930D02*
X0145531Y0057930D01*
X0145531Y0056732D02*
X0144400Y0056732D01*
X0144400Y0055533D02*
X0145531Y0055533D01*
X0149100Y0056837D02*
X0149100Y0063100D01*
X0143393Y0067518D02*
X0159449Y0067518D01*
X0142200Y0058600D02*
X0142200Y0023100D01*
X0136500Y0017400D01*
X0150864Y0013585D02*
X0152146Y0013585D01*
X0151900Y0012387D02*
X0151100Y0012387D01*
X0151100Y0011188D02*
X0151900Y0011188D01*
X0151900Y0009990D02*
X0151100Y0009990D01*
X0151100Y0008791D02*
X0156100Y0008791D01*
X0156100Y0009990D02*
X0156900Y0009990D01*
X0156900Y0011188D02*
X0156100Y0011188D01*
X0156100Y0012387D02*
X0156900Y0012387D01*
X0156900Y0013585D02*
X0156100Y0013585D01*
X0156100Y0014784D02*
X0156900Y0014784D01*
X0156900Y0015982D02*
X0156100Y0015982D01*
X0154017Y0015982D02*
X0151900Y0015982D01*
X0151900Y0017181D02*
X0159449Y0017181D01*
X0159449Y0018379D02*
X0151900Y0018379D01*
X0151900Y0019578D02*
X0159449Y0019578D01*
X0159449Y0020776D02*
X0151900Y0020776D01*
X0151900Y0021975D02*
X0159449Y0021975D01*
X0159449Y0023173D02*
X0151900Y0023173D01*
X0151900Y0024372D02*
X0159449Y0024372D01*
X0159449Y0025570D02*
X0151900Y0025570D01*
X0151900Y0026769D02*
X0159449Y0026769D01*
X0159449Y0027967D02*
X0151900Y0027967D01*
X0151900Y0029166D02*
X0159449Y0029166D01*
X0159449Y0030364D02*
X0151900Y0030364D01*
X0151900Y0031563D02*
X0159449Y0031563D01*
X0159449Y0032761D02*
X0151900Y0032761D01*
X0151900Y0033960D02*
X0159449Y0033960D01*
X0159449Y0035158D02*
X0151900Y0035158D01*
X0151900Y0036357D02*
X0159449Y0036357D01*
X0159449Y0037555D02*
X0151900Y0037555D01*
X0151900Y0038754D02*
X0159449Y0038754D01*
X0159449Y0039952D02*
X0151900Y0039952D01*
X0151900Y0041151D02*
X0159449Y0041151D01*
X0159449Y0042349D02*
X0151900Y0042349D01*
X0151900Y0043548D02*
X0159449Y0043548D01*
X0159449Y0044746D02*
X0151900Y0044746D01*
X0152282Y0045945D02*
X0159449Y0045945D01*
X0159449Y0047143D02*
X0152668Y0047143D01*
X0152668Y0048342D02*
X0159449Y0048342D01*
X0159449Y0049540D02*
X0152668Y0049540D01*
X0152668Y0050739D02*
X0159449Y0050739D01*
X0159449Y0051937D02*
X0152325Y0051937D01*
X0139100Y0063300D02*
X0132700Y0057900D01*
X0130700Y0057900D01*
X0126313Y0080702D02*
X0159449Y0080702D01*
X0159449Y0081900D02*
X0127512Y0081900D01*
X0128710Y0083099D02*
X0159449Y0083099D01*
X0159449Y0084297D02*
X0129909Y0084297D01*
X0131107Y0085496D02*
X0159449Y0085496D01*
X0159449Y0086694D02*
X0132306Y0086694D01*
X0133504Y0087893D02*
X0159449Y0087893D01*
X0159449Y0089091D02*
X0134703Y0089091D01*
X0135901Y0090290D02*
X0159449Y0090290D01*
X0159449Y0091488D02*
X0137100Y0091488D01*
X0139692Y0092687D02*
X0159449Y0092687D01*
X0159449Y0093885D02*
X0140662Y0093885D01*
X0141158Y0095084D02*
X0159449Y0095084D01*
X0159449Y0096282D02*
X0141200Y0096282D01*
X0141200Y0097481D02*
X0159449Y0097481D01*
X0159449Y0098679D02*
X0141200Y0098679D01*
X0141200Y0099878D02*
X0159449Y0099878D01*
X0159449Y0101076D02*
X0141200Y0101076D01*
X0141200Y0102275D02*
X0159449Y0102275D01*
X0159449Y0103473D02*
X0141010Y0103473D01*
X0140514Y0104672D02*
X0159449Y0104672D01*
X0159449Y0105870D02*
X0139335Y0105870D01*
X0100900Y0091700D02*
X0095900Y0086700D01*
X0095900Y0086500D01*
X0012100Y0037100D02*
X0006600Y0031600D01*
X0006600Y0009100D01*
X0150608Y0003997D02*
X0152409Y0003997D01*
X0151986Y0005196D02*
X0151100Y0005196D01*
X0151100Y0006394D02*
X0151900Y0006394D01*
X0151900Y0007593D02*
X0151100Y0007593D01*
X0151544Y0014784D02*
X0152764Y0014784D01*
X0158983Y0015982D02*
X0159449Y0015982D01*
D13*
X0090900Y0049000D03*
X0084900Y0049000D03*
X0084900Y0055000D03*
X0090900Y0055000D03*
D14*
X0093120Y0057220D02*
X0093120Y0046780D01*
X0082680Y0046780D01*
X0082680Y0057220D01*
X0093120Y0057220D01*
X0093120Y0047939D02*
X0082680Y0047939D01*
X0082680Y0049098D02*
X0093120Y0049098D01*
X0093120Y0050257D02*
X0082680Y0050257D01*
X0082680Y0051416D02*
X0093120Y0051416D01*
X0093120Y0052575D02*
X0082680Y0052575D01*
X0082680Y0053734D02*
X0093120Y0053734D01*
X0093120Y0054893D02*
X0082680Y0054893D01*
X0082680Y0056052D02*
X0093120Y0056052D01*
X0093120Y0057211D02*
X0082680Y0057211D01*
D15*
X0091837Y0059000D03*
X0087900Y0045500D03*
D16*
X0087961Y0026067D02*
X0093865Y0026067D01*
X0093865Y0021933D01*
X0087961Y0021933D01*
X0087961Y0026067D01*
X0087961Y0023704D02*
X0093865Y0023704D01*
X0093865Y0025475D02*
X0087961Y0025475D01*
X0083039Y0026067D02*
X0077135Y0026067D01*
X0083039Y0026067D02*
X0083039Y0021933D01*
X0077135Y0021933D01*
X0077135Y0026067D01*
X0077135Y0023704D02*
X0083039Y0023704D01*
X0083039Y0025475D02*
X0077135Y0025475D01*
X0121233Y0050835D02*
X0121233Y0056739D01*
X0125367Y0056739D01*
X0125367Y0050835D01*
X0121233Y0050835D01*
X0121233Y0052606D02*
X0125367Y0052606D01*
X0125367Y0054377D02*
X0121233Y0054377D01*
X0121233Y0056148D02*
X0125367Y0056148D01*
X0121233Y0061661D02*
X0121233Y0067565D01*
X0125367Y0067565D01*
X0125367Y0061661D01*
X0121233Y0061661D01*
X0121233Y0063432D02*
X0125367Y0063432D01*
X0125367Y0065203D02*
X0121233Y0065203D01*
X0121233Y0066974D02*
X0125367Y0066974D01*
X0125765Y0076567D02*
X0119861Y0076567D01*
X0125765Y0076567D02*
X0125765Y0072433D01*
X0119861Y0072433D01*
X0119861Y0076567D01*
X0119861Y0074204D02*
X0125765Y0074204D01*
X0125765Y0075975D02*
X0119861Y0075975D01*
X0114939Y0076567D02*
X0109035Y0076567D01*
X0114939Y0076567D02*
X0114939Y0072433D01*
X0109035Y0072433D01*
X0109035Y0076567D01*
X0109035Y0074204D02*
X0114939Y0074204D01*
X0114939Y0075975D02*
X0109035Y0075975D01*
X0105465Y0076267D02*
X0099561Y0076267D01*
X0105465Y0076267D02*
X0105465Y0072133D01*
X0099561Y0072133D01*
X0099561Y0076267D01*
X0099561Y0073904D02*
X0105465Y0073904D01*
X0105465Y0075675D02*
X0099561Y0075675D01*
X0094639Y0076267D02*
X0088735Y0076267D01*
X0094639Y0076267D02*
X0094639Y0072133D01*
X0088735Y0072133D01*
X0088735Y0076267D01*
X0088735Y0073904D02*
X0094639Y0073904D01*
X0094639Y0075675D02*
X0088735Y0075675D01*
D17*
X0149100Y0056837D03*
X0149100Y0048963D03*
D18*
X0146500Y0012100D02*
X0146500Y0006100D01*
X0156500Y0006100D02*
X0156500Y0012100D01*
X0136600Y0012100D02*
X0136600Y0006100D01*
X0126600Y0006100D02*
X0126600Y0012100D01*
X0116600Y0012100D02*
X0116600Y0006100D01*
X0106600Y0006100D02*
X0106600Y0012100D01*
X0096600Y0012100D02*
X0096600Y0006100D01*
X0086600Y0006100D02*
X0086600Y0012100D01*
X0076600Y0012100D02*
X0076600Y0006100D01*
X0066600Y0006100D02*
X0066600Y0012100D01*
X0056600Y0012100D02*
X0056600Y0006100D01*
X0046600Y0006100D02*
X0046600Y0012100D01*
X0036600Y0012100D02*
X0036600Y0006100D01*
X0026600Y0006100D02*
X0026600Y0012100D01*
X0016600Y0012100D02*
X0016600Y0006100D01*
X0006600Y0006100D02*
X0006600Y0012100D01*
X0006600Y0096100D02*
X0006600Y0102100D01*
X0016600Y0102100D02*
X0016600Y0096100D01*
X0026600Y0096100D02*
X0026600Y0102100D01*
X0036600Y0102100D02*
X0036600Y0096100D01*
X0046600Y0096100D02*
X0046600Y0102100D01*
X0056600Y0102100D02*
X0056600Y0096100D01*
X0066600Y0096100D02*
X0066600Y0102100D01*
X0076600Y0102100D02*
X0076600Y0096100D01*
X0086600Y0096100D02*
X0086600Y0102100D01*
X0096600Y0102100D02*
X0096600Y0096100D01*
X0106600Y0096100D02*
X0106600Y0102100D01*
X0116600Y0102100D02*
X0116600Y0096100D01*
X0126600Y0096100D02*
X0126600Y0102100D01*
X0136600Y0102100D02*
X0136600Y0096100D01*
D19*
X0122813Y0074500D02*
X0115837Y0066300D01*
X0116137Y0066600D01*
X0121600Y0066600D01*
X0123300Y0064613D01*
X0115837Y0066300D02*
X0114600Y0066600D01*
X0114600Y0060837D01*
X0112900Y0059137D01*
X0112337Y0059700D01*
X0103000Y0059700D01*
X0105500Y0054700D02*
X0107900Y0052300D01*
X0111863Y0052300D01*
X0112900Y0051263D01*
X0120776Y0051263D01*
X0123300Y0053787D01*
X0108600Y0065600D02*
X0108600Y0071113D01*
X0111987Y0074500D01*
X0104100Y0074100D02*
X0103437Y0074763D01*
X0103437Y0081900D01*
X0095563Y0081900D02*
X0091687Y0074200D01*
X0090000Y0071487D01*
X0090000Y0066700D01*
X0095500Y0068200D02*
X0095513Y0068200D01*
X0100913Y0073600D01*
X0102600Y0073600D01*
X0102513Y0074200D01*
X0104100Y0074100D01*
X0107963Y0066300D02*
X0098800Y0066300D01*
X0107963Y0066300D02*
X0108600Y0065600D01*
X0085500Y0037200D02*
X0084100Y0035800D01*
X0084100Y0034100D01*
X0082463Y0032300D01*
X0081600Y0031600D01*
X0081600Y0024013D01*
X0080087Y0024000D01*
X0072500Y0025363D02*
X0071263Y0026600D01*
X0064600Y0026600D01*
X0064600Y0026754D01*
X0065000Y0028054D01*
X0065000Y0021900D01*
X0064600Y0033446D02*
X0020346Y0033446D01*
X0016600Y0029100D01*
X0016600Y0009100D01*
X0064600Y0033446D02*
X0065254Y0034100D01*
X0071600Y0034100D01*
X0072500Y0033237D01*
X0090337Y0032300D02*
X0090600Y0032037D01*
X0090913Y0024000D02*
X0090600Y0023600D01*
X0026400Y0068246D02*
X0026400Y0097900D01*
X0026600Y0099100D01*
X0016600Y0099100D02*
X0016200Y0097700D01*
X0016200Y0068246D01*
D20*
X0040900Y0040300D03*
X0068600Y0040300D03*
X0096700Y0035400D03*
X0101200Y0032100D03*
X0105300Y0036600D03*
X0113700Y0035900D03*
X0118500Y0039300D03*
X0113800Y0046400D03*
X0130600Y0052300D03*
X0130700Y0057900D03*
X0139100Y0063300D03*
X0131800Y0066400D03*
X0149100Y0063100D03*
X0112000Y0089200D03*
X0102500Y0088100D03*
X0085500Y0072900D03*
X0113700Y0030000D03*
X0121500Y0016800D03*
D21*
X0090600Y0032563D02*
X0090337Y0032300D01*
X0090600Y0032563D02*
X0090600Y0035100D01*
X0091600Y0037500D02*
X0089869Y0039231D01*
X0089869Y0042600D01*
X0088100Y0042400D02*
X0087900Y0042600D01*
X0088100Y0042400D02*
X0088100Y0037600D01*
X0076800Y0037100D02*
X0067600Y0037100D01*
X0067100Y0037600D01*
X0061100Y0037600D01*
X0060600Y0037100D01*
X0012100Y0037100D01*
X0039100Y0016600D02*
X0085013Y0016600D01*
D22*
X0146500Y0013600D02*
X0146500Y0009100D01*
X0146600Y0009200D01*
X0146500Y0013600D02*
X0149100Y0016200D01*
X0149100Y0048963D01*
D23*
X0065000Y0021900D03*
X0033500Y0022700D03*
M02*
